<?xml version="1.0" standalone="no"?>
<!DOCTYPE svg PUBLIC "-//W3C//DTD SVG 20010904//EN"
 "http://www.w3.org/TR/2001/REC-SVG-20010904/DTD/svg10.dtd">
<svg version="1.0" xmlns="http://www.w3.org/2000/svg"
 width="500.000000pt" height="500.000000pt" viewBox="0 0 500.000000 500.000000"
 preserveAspectRatio="xMidYMid meet">
<metadata>
Created by potrace 1.14, written by Peter Selinger 2001-2017
</metadata>
<g transform="translate(0.000000,500.000000) scale(0.100000,-0.100000)"
fill="#000000" stroke="none">
<path d="M3360 4574 c-14 -7 -46 -23 -72 -34 -36 -15 -49 -27 -54 -48 -3 -15
-9 -36 -12 -47 -8 -29 -12 -46 -16 -83 -4 -36 6 -45 104 -96 30 -16 62 -35 71
-43 15 -12 26 -9 89 22 41 19 79 35 86 35 16 0 34 31 40 68 3 15 10 51 16 81
8 35 8 56 2 58 -5 2 -40 21 -78 43 -38 22 -72 40 -77 40 -5 0 -9 5 -9 10 0 14
-61 11 -90 -6z"/>
<path d="M2637 4357 c-52 -52 -94 -100 -94 -108 0 -8 -6 -50 -12 -94 -17 -114
-19 -154 -7 -164 13 -11 213 -91 240 -97 10 -2 29 -10 42 -19 21 -14 54 -12
54 4 0 3 15 22 33 42 84 95 103 120 129 170 15 30 23 56 18 57 -6 2 -8 8 -4
13 9 16 18 88 15 126 -1 13 -37 31 -151 77 -73 30 -80 33 -132 65 l-38 22 -93
-94z"/>
<path d="M1895 4105 c-33 -14 -94 -37 -135 -52 -96 -33 -150 -60 -151 -76 0
-6 -2 -39 -4 -72 -2 -33 -4 -60 -5 -60 -1 0 -3 -17 -4 -37 -1 -21 2 -38 7 -38
4 0 5 -5 1 -12 -11 -18 -11 -71 -1 -85 6 -8 6 -13 -1 -13 -5 0 -8 -9 -5 -21 3
-11 29 -32 62 -50 50 -27 170 -107 213 -143 14 -12 25 -10 82 19 37 18 70 34
74 35 4 2 18 7 32 13 14 6 27 11 30 12 3 0 24 11 46 23 23 11 44 18 48 15 3
-4 6 -1 6 5 0 7 7 12 15 12 24 0 32 31 31 118 -1 45 2 82 7 82 4 0 4 8 -1 18
-4 9 -7 43 -6 75 2 68 -2 74 -111 147 -44 30 -93 67 -109 82 -36 34 -45 34
-121 3z"/>
<path d="M921 3879 c-74 -38 -136 -71 -137 -72 -14 -14 -28 -326 -15 -344 3
-6 13 -10 22 -10 15 0 71 -25 250 -113 l57 -27 28 23 c16 13 32 23 37 24 8 0
89 51 97 61 3 3 17 9 31 12 40 10 71 40 75 73 7 47 12 256 7 275 -3 11 -35 31
-82 50 -90 37 -215 101 -219 112 -5 11 -7 10 -151 -64z"/>
<path d="M3254 3738 c-35 -34 -75 -68 -87 -77 -12 -8 -28 -21 -35 -28 -7 -7
-17 -13 -21 -13 -6 0 -41 -100 -41 -120 0 -5 -5 -21 -12 -37 -12 -30 -14 -37
-22 -68 -2 -11 -11 -42 -20 -69 -8 -27 -12 -54 -9 -60 7 -12 45 -41 53 -41 5
0 79 -44 95 -57 18 -15 86 -58 90 -58 3 0 29 -16 60 -35 30 -20 55 -32 55 -28
0 4 4 2 8 -5 6 -9 22 0 58 33 27 25 62 56 78 68 17 12 38 30 48 40 10 9 22 17
28 17 21 0 55 74 65 140 2 14 13 61 26 105 12 44 22 95 23 113 1 32 -3 35 -78
75 -44 23 -84 45 -90 50 -48 34 -103 67 -113 67 -7 0 -13 4 -13 9 0 5 -8 11
-17 15 -10 3 -28 10 -41 16 -20 8 -30 2 -88 -52z"/>
<path d="M2765 3165 c-36 -26 -78 -60 -91 -72 -7 -7 -17 -13 -23 -13 -6 0 -11
-4 -11 -8 0 -5 -34 -30 -75 -57 -65 -41 -79 -57 -77 -85 1 -13 13 -131 19
-180 3 -30 7 -72 7 -93 1 -38 3 -40 61 -63 33 -13 72 -31 87 -39 15 -9 29 -15
30 -15 4 2 58 -19 95 -37 39 -18 63 -11 111 33 20 19 43 34 50 34 6 0 12 3 12
8 0 4 9 12 19 17 86 44 110 61 120 81 11 24 15 290 5 331 -4 12 -13 23 -22 23
-20 0 -274 121 -287 137 -8 9 -15 9 -30 -2z"/>
<path d="M1634 3045 c-32 -25 -68 -54 -79 -63 -11 -10 -35 -29 -54 -43 -83
-59 -97 -82 -78 -129 7 -17 17 -60 24 -107 3 -18 9 -33 15 -33 5 0 6 -4 3 -10
-3 -5 0 -29 6 -52 7 -24 13 -51 12 -62 0 -12 10 -23 28 -30 16 -5 29 -14 29
-19 0 -4 4 -6 9 -3 5 4 30 -3 55 -14 25 -10 46 -17 46 -13 0 3 6 1 13 -5 13
-10 123 -50 156 -57 11 -2 28 4 39 13 11 9 37 31 57 47 21 17 52 42 70 58 18
15 37 27 41 27 5 0 26 16 46 34 l37 33 -19 74 c-25 99 -44 198 -45 229 0 33
-33 70 -61 70 -13 0 -25 4 -29 9 -3 5 -19 12 -36 16 -17 4 -69 22 -117 41 -48
19 -92 34 -98 34 -6 0 -37 -20 -70 -45z"/>
<path d="M2530 2370 c0 -6 -3 -9 -7 -8 -5 1 -35 -11 -68 -26 -63 -30 -147 -68
-155 -71 -3 -1 -19 -8 -37 -14 l-32 -12 4 -72 c2 -40 6 -81 8 -92 5 -23 18
-134 22 -182 2 -34 -7 -41 -58 -48 -12 -1 -35 -8 -50 -14 -15 -6 -42 -13 -60
-16 -18 -3 -43 -10 -57 -15 -26 -9 -100 -29 -135 -36 -47 -9 -61 -13 -87 -23
-16 -6 -28 -9 -28 -7 0 6 -102 -28 -124 -40 -15 -9 -16 -15 -7 -31 6 -11 12
-45 15 -74 3 -30 5 -54 6 -54 1 0 3 -28 5 -62 1 -34 6 -78 9 -99 7 -37 13 -94
21 -214 2 -36 7 -76 10 -90 3 -14 7 -63 9 -110 3 -86 14 -204 23 -250 2 -14 7
-65 9 -115 3 -49 6 -103 7 -120 2 -36 37 -63 85 -67 18 -1 32 -5 32 -8 0 -3
16 -7 36 -8 20 -2 45 -7 55 -12 10 -6 29 -10 43 -10 14 0 26 -4 26 -8 0 -4 12
-8 28 -8 15 0 47 -6 72 -13 45 -13 61 -17 114 -27 16 -2 33 -7 36 -9 13 -8 84
-18 115 -17 17 0 176 3 355 6 179 3 334 7 345 9 11 2 36 7 55 11 19 3 55 8 80
11 25 2 77 11 115 19 80 17 115 24 165 32 47 8 65 12 65 14 0 3 38 9 90 15 27
4 53 8 57 11 4 3 24 7 45 9 21 2 49 7 63 11 64 15 116 26 130 26 8 0 39 6 69
14 30 7 58 11 62 8 4 -2 10 -1 13 4 2 4 -23 21 -57 37 -34 17 -63 33 -65 38
-2 4 -10 7 -17 7 -7 0 -32 12 -55 27 -23 16 -45 28 -49 28 -3 0 -11 4 -18 8
-6 4 -51 28 -100 54 -183 96 -197 108 -207 168 -11 63 -16 102 -21 155 -3 30
-8 69 -10 85 -3 17 -7 59 -10 95 -4 61 -8 93 -21 197 -3 24 -7 75 -9 115 -2
40 -4 73 -5 73 -7 0 -33 267 -32 327 1 22 -9 28 -50 33 -36 4 -203 16 -258 19
-19 1 -40 5 -47 9 -6 4 -14 3 -17 -1 -3 -5 -18 -7 -33 -5 -32 5 -89 11 -116
12 -28 2 -43 60 -53 219 -6 87 -17 122 -41 123 -18 1 -30 3 -68 13 -11 3 -46
12 -77 20 -31 7 -62 17 -68 21 -19 12 -90 15 -90 5z"/>
</g>
</svg>
